<svg id="visual" viewBox="0 0 960 540" width="960" height="540" xmlns="http://www.w3.org/2000/svg" xmlns:xlink="http://www.w3.org/1999/xlink" version="1.1"><g stroke-width="1" stroke-linejoin="bevel"><path d="M516.4 278.6L509.6 299.6L580.6 250.4Z" fill="#224f94" stroke="#224f94"></path><path d="M651.9 383.9L641.2 240.4L580.6 250.4Z" fill="#133f8c" stroke="#133f8c"></path><path d="M509.6 299.6L651.9 383.9L580.6 250.4Z" fill="#245195" stroke="#245195"></path><path d="M509.6 299.6L570.6 441.9L651.9 383.9Z" fill="#18448f" stroke="#18448f"></path><path d="M727.5 445.9L687.9 374.6L651.9 383.9Z" fill="#18448f" stroke="#18448f"></path><path d="M651.9 383.9L687.9 374.6L641.2 240.4Z" fill="#204d93" stroke="#204d93"></path><path d="M641.2 240.4L608.9 170.3L580.6 250.4Z" fill="#15418d" stroke="#15418d"></path><path d="M580.6 250.4L539.6 156.3L516.4 278.6Z" fill="#15418d" stroke="#15418d"></path><path d="M608.9 170.3L539.6 156.3L580.6 250.4Z" fill="#224f94" stroke="#224f94"></path><path d="M382.4 300.7L413.1 372.6L509.6 299.6Z" fill="#194690" stroke="#194690"></path><path d="M687.9 374.6L720.2 342.7L641.2 240.4Z" fill="#133f8c" stroke="#133f8c"></path><path d="M641.2 240.4L689.2 151.1L608.9 170.3Z" fill="#194690" stroke="#194690"></path><path d="M413.1 372.6L543.9 467.7L570.6 441.9Z" fill="#15418d" stroke="#15418d"></path><path d="M570.6 441.9L625.2 462.9L651.9 383.9Z" fill="#1f4c93" stroke="#1f4c93"></path><path d="M543.9 467.7L625.2 462.9L570.6 441.9Z" fill="#245195" stroke="#245195"></path><path d="M687.9 374.6L779.7 365.7L720.2 342.7Z" fill="#1b4891" stroke="#1b4891"></path><path d="M407.1 241.3L509.6 299.6L516.4 278.6Z" fill="#204d93" stroke="#204d93"></path><path d="M509.6 299.6L413.1 372.6L570.6 441.9Z" fill="#133f8c" stroke="#133f8c"></path><path d="M423.1 160.4L407.1 241.3L516.4 278.6Z" fill="#1b4891" stroke="#1b4891"></path><path d="M608.9 170.3L593.9 131.4L539.6 156.3Z" fill="#194690" stroke="#194690"></path><path d="M689.2 151.1L593.9 131.4L608.9 170.3Z" fill="#1d4a92" stroke="#1d4a92"></path><path d="M593.9 131.4L572.9 122.1L539.6 156.3Z" fill="#1f4c93" stroke="#1f4c93"></path><path d="M539.6 156.3L423.1 160.4L516.4 278.6Z" fill="#1b4891" stroke="#1b4891"></path><path d="M407.1 241.3L382.4 300.7L509.6 299.6Z" fill="#133f8c" stroke="#133f8c"></path><path d="M788.2 245.6L689.2 151.1L641.2 240.4Z" fill="#224f94" stroke="#224f94"></path><path d="M593.6 0L534.6 2.1L572.9 122.1Z" fill="#224f94" stroke="#224f94"></path><path d="M534.6 2.1L423.1 160.4L539.6 156.3Z" fill="#1d4a92" stroke="#1d4a92"></path><path d="M407.1 241.3L351.4 292.4L382.4 300.7Z" fill="#15418d" stroke="#15418d"></path><path d="M625.2 462.9L727.5 445.9L651.9 383.9Z" fill="#15418d" stroke="#15418d"></path><path d="M297.1 123.1L351.4 292.4L407.1 241.3Z" fill="#1d4a92" stroke="#1d4a92"></path><path d="M382.4 300.7L339.8 411.7L413.1 372.6Z" fill="#133f8c" stroke="#133f8c"></path><path d="M727.5 445.9L779.7 365.7L687.9 374.6Z" fill="#204d93" stroke="#204d93"></path><path d="M720.2 342.7L789.5 276.4L641.2 240.4Z" fill="#1d4a92" stroke="#1d4a92"></path><path d="M339.8 411.7L423.6 477.7L413.1 372.6Z" fill="#224f94" stroke="#224f94"></path><path d="M413.1 372.6L423.6 477.7L543.9 467.7Z" fill="#1f4c93" stroke="#1f4c93"></path><path d="M543.9 467.7L526.4 540L625.2 462.9Z" fill="#1d4a92" stroke="#1d4a92"></path><path d="M779.7 365.7L789.5 276.4L720.2 342.7Z" fill="#224f94" stroke="#224f94"></path><path d="M789.5 276.4L788.2 245.6L641.2 240.4Z" fill="#133f8c" stroke="#133f8c"></path><path d="M788.2 245.6L724.2 138.3L689.2 151.1Z" fill="#1f4c93" stroke="#1f4c93"></path><path d="M694.2 0L593.6 0L593.9 131.4Z" fill="#18448f" stroke="#18448f"></path><path d="M461.6 540L526.4 540L543.9 467.7Z" fill="#224f94" stroke="#224f94"></path><path d="M625.2 462.9L676.9 540L727.5 445.9Z" fill="#1d4a92" stroke="#1d4a92"></path><path d="M370.4 524.9L424.1 504.9L423.6 477.7Z" fill="#1f4c93" stroke="#1f4c93"></path><path d="M423.6 477.7L461.6 540L543.9 467.7Z" fill="#194690" stroke="#194690"></path><path d="M351.4 292.4L339.8 411.7L382.4 300.7Z" fill="#15418d" stroke="#15418d"></path><path d="M424.1 504.9L461.6 540L423.6 477.7Z" fill="#224f94" stroke="#224f94"></path><path d="M526.4 540L676.9 540L625.2 462.9Z" fill="#204d93" stroke="#204d93"></path><path d="M727.5 445.9L802.5 447.7L779.7 365.7Z" fill="#204d93" stroke="#204d93"></path><path d="M782.2 540L802.5 447.7L727.5 445.9Z" fill="#204d93" stroke="#204d93"></path><path d="M864.5 303.6L841.5 245.3L789.5 276.4Z" fill="#245195" stroke="#245195"></path><path d="M789.5 276.4L841.5 245.3L788.2 245.6Z" fill="#224f94" stroke="#224f94"></path><path d="M864.5 303.6L789.5 276.4L779.7 365.7Z" fill="#15418d" stroke="#15418d"></path><path d="M788.2 245.6L861.5 131.1L724.2 138.3Z" fill="#204d93" stroke="#204d93"></path><path d="M339.8 411.7L370.4 524.9L423.6 477.7Z" fill="#224f94" stroke="#224f94"></path><path d="M424.1 504.9L370.4 524.9L461.6 540Z" fill="#204d93" stroke="#204d93"></path><path d="M802.5 447.7L864.5 303.6L779.7 365.7Z" fill="#204d93" stroke="#204d93"></path><path d="M364.4 52.1L344.4 107.3L423.1 160.4Z" fill="#1b4891" stroke="#1b4891"></path><path d="M423.1 160.4L344.4 107.3L407.1 241.3Z" fill="#1f4c93" stroke="#1f4c93"></path><path d="M351.4 292.4L235.8 352.6L339.8 411.7Z" fill="#204d93" stroke="#204d93"></path><path d="M593.6 0L572.9 122.1L593.9 131.4Z" fill="#194690" stroke="#194690"></path><path d="M572.9 122.1L534.6 2.1L539.6 156.3Z" fill="#204d93" stroke="#204d93"></path><path d="M864.5 303.6L868.7 249.3L841.5 245.3Z" fill="#1f4c93" stroke="#1f4c93"></path><path d="M841.5 245.3L861.5 131.1L788.2 245.6Z" fill="#18448f" stroke="#18448f"></path><path d="M694.2 0L593.9 131.4L689.2 151.1Z" fill="#15418d" stroke="#15418d"></path><path d="M694.2 0L689.2 151.1L724.2 138.3Z" fill="#245195" stroke="#245195"></path><path d="M593.6 0L537.9 0L534.6 2.1Z" fill="#204d93" stroke="#204d93"></path><path d="M534.6 2.1L364.4 52.1L423.1 160.4Z" fill="#194690" stroke="#194690"></path><path d="M227.8 222.3L251.1 292.7L351.4 292.4Z" fill="#16438e" stroke="#16438e"></path><path d="M339.8 411.7L320.1 540L370.4 524.9Z" fill="#16438e" stroke="#16438e"></path><path d="M676.9 540L782.2 540L727.5 445.9Z" fill="#245195" stroke="#245195"></path><path d="M901.7 311.6L883.7 273.4L864.5 303.6Z" fill="#1b4891" stroke="#1b4891"></path><path d="M864.5 303.6L883.7 273.4L868.7 249.3Z" fill="#1d4a92" stroke="#1d4a92"></path><path d="M901.7 311.6L864.5 303.6L802.5 447.7Z" fill="#16438e" stroke="#16438e"></path><path d="M336.4 0L364.4 52.1L534.6 2.1Z" fill="#245195" stroke="#245195"></path><path d="M344.4 107.3L297.1 123.1L407.1 241.3Z" fill="#16438e" stroke="#16438e"></path><path d="M271.8 90.1L297.1 123.1L344.4 107.3Z" fill="#18448f" stroke="#18448f"></path><path d="M227.8 222.3L237.5 286.4L251.1 292.7Z" fill="#1d4a92" stroke="#1d4a92"></path><path d="M251.1 292.7L235.8 352.6L351.4 292.4Z" fill="#133f8c" stroke="#133f8c"></path><path d="M782.2 540L800.5 540L802.5 447.7Z" fill="#194690" stroke="#194690"></path><path d="M817.7 0L694.2 0L724.2 138.3Z" fill="#15418d" stroke="#15418d"></path><path d="M237.5 286.4L235.8 352.6L251.1 292.7Z" fill="#16438e" stroke="#16438e"></path><path d="M960 317.6L901.7 311.6L960 421.7Z" fill="#245195" stroke="#245195"></path><path d="M230.5 463.7L320.1 540L339.8 411.7Z" fill="#18448f" stroke="#18448f"></path><path d="M370.4 524.9L320.1 540L461.6 540Z" fill="#245195" stroke="#245195"></path><path d="M960 172.3L861.5 131.1L868.7 249.3Z" fill="#18448f" stroke="#18448f"></path><path d="M868.7 249.3L861.5 131.1L841.5 245.3Z" fill="#133f8c" stroke="#133f8c"></path><path d="M960 248.4L868.7 249.3L883.7 273.4Z" fill="#16438e" stroke="#16438e"></path><path d="M297.1 123.1L227.8 222.3L351.4 292.4Z" fill="#1f4c93" stroke="#1f4c93"></path><path d="M154.5 354.6L195.8 376.9L235.8 352.6Z" fill="#224f94" stroke="#224f94"></path><path d="M364.4 52.1L271.8 90.1L344.4 107.3Z" fill="#16438e" stroke="#16438e"></path><path d="M297.1 123.1L225.8 167.4L227.8 222.3Z" fill="#1d4a92" stroke="#1d4a92"></path><path d="M271.8 90.1L225.8 167.4L297.1 123.1Z" fill="#204d93" stroke="#204d93"></path><path d="M195.8 376.9L230.5 463.7L235.8 352.6Z" fill="#18448f" stroke="#18448f"></path><path d="M235.8 352.6L230.5 463.7L339.8 411.7Z" fill="#16438e" stroke="#16438e"></path><path d="M235.8 352.6L237.5 286.4L154.5 354.6Z" fill="#224f94" stroke="#224f94"></path><path d="M173.3 263.6L237.5 286.4L227.8 222.3Z" fill="#133f8c" stroke="#133f8c"></path><path d="M364.4 52.1L294.8 0L271.8 90.1Z" fill="#1d4a92" stroke="#1d4a92"></path><path d="M537.9 0L336.4 0L534.6 2.1Z" fill="#133f8c" stroke="#133f8c"></path><path d="M861.5 131.1L840.7 27.1L724.2 138.3Z" fill="#204d93" stroke="#204d93"></path><path d="M960 80.1L840.7 27.1L861.5 131.1Z" fill="#194690" stroke="#194690"></path><path d="M960 421.7L901.7 311.6L802.5 447.7Z" fill="#133f8c" stroke="#133f8c"></path><path d="M901.7 311.6L960 248.4L883.7 273.4Z" fill="#133f8c" stroke="#133f8c"></path><path d="M179.3 182.4L173.3 263.6L227.8 222.3Z" fill="#15418d" stroke="#15418d"></path><path d="M840.7 27.1L817.7 0L724.2 138.3Z" fill="#16438e" stroke="#16438e"></path><path d="M960 317.6L960 248.4L901.7 311.6Z" fill="#1b4891" stroke="#1b4891"></path><path d="M179.5 137.1L187.5 172.3L225.8 167.4Z" fill="#15418d" stroke="#15418d"></path><path d="M225.8 167.4L187.5 172.3L227.8 222.3Z" fill="#224f94" stroke="#224f94"></path><path d="M179.5 137.1L225.8 167.4L271.8 90.1Z" fill="#15418d" stroke="#15418d"></path><path d="M800.5 540L896.7 540L802.5 447.7Z" fill="#1b4891" stroke="#1b4891"></path><path d="M960 0L834.5 0L840.7 27.1Z" fill="#1d4a92" stroke="#1d4a92"></path><path d="M840.7 27.1L834.5 0L817.7 0Z" fill="#194690" stroke="#194690"></path><path d="M187.5 172.3L179.3 182.4L227.8 222.3Z" fill="#18448f" stroke="#18448f"></path><path d="M336.4 0L294.8 0L364.4 52.1Z" fill="#224f94" stroke="#224f94"></path><path d="M187.5 172.3L179.5 137.1L179.3 182.4Z" fill="#15418d" stroke="#15418d"></path><path d="M960 457.9L960 421.7L802.5 447.7Z" fill="#1d4a92" stroke="#1d4a92"></path><path d="M173.3 263.6L154.5 354.6L237.5 286.4Z" fill="#1b4891" stroke="#1b4891"></path><path d="M100.5 431.9L171.8 540L230.5 463.7Z" fill="#1b4891" stroke="#1b4891"></path><path d="M107.3 293.7L154.5 354.6L173.3 263.6Z" fill="#1b4891" stroke="#1b4891"></path><path d="M960 248.4L960 172.3L868.7 249.3Z" fill="#1d4a92" stroke="#1d4a92"></path><path d="M896.7 540L960 457.9L802.5 447.7Z" fill="#1d4a92" stroke="#1d4a92"></path><path d="M146.3 101.3L179.5 137.1L271.8 90.1Z" fill="#1d4a92" stroke="#1d4a92"></path><path d="M179.3 182.4L107.3 293.7L173.3 263.6Z" fill="#16438e" stroke="#16438e"></path><path d="M294.8 0L262.1 0L271.8 90.1Z" fill="#1b4891" stroke="#1b4891"></path><path d="M171.8 540L188.5 540L230.5 463.7Z" fill="#16438e" stroke="#16438e"></path><path d="M230.5 463.7L188.5 540L320.1 540Z" fill="#16438e" stroke="#16438e"></path><path d="M896.7 540L971.7 492.9L960 457.9Z" fill="#1f4c93" stroke="#1f4c93"></path><path d="M960 457.9L971.7 492.9L960 421.7Z" fill="#194690" stroke="#194690"></path><path d="M960 421.7L971.7 492.9L960 317.6Z" fill="#194690" stroke="#194690"></path><path d="M960 317.6L971.7 492.9L960 248.4Z" fill="#18448f" stroke="#18448f"></path><path d="M960 248.4L971.7 492.9L960 172.3Z" fill="#224f94" stroke="#224f94"></path><path d="M971.7 492.9L960 80.1L960 172.3Z" fill="#1b4891" stroke="#1b4891"></path><path d="M960 172.3L960 80.1L861.5 131.1Z" fill="#16438e" stroke="#16438e"></path><path d="M896.7 540L960 540L971.7 492.9Z" fill="#245195" stroke="#245195"></path><path d="M100.5 431.9L230.5 463.7L195.8 376.9Z" fill="#133f8c" stroke="#133f8c"></path><path d="M0 189.4L107.3 293.7L179.3 182.4Z" fill="#18448f" stroke="#18448f"></path><path d="M154.5 354.6L100.5 431.9L195.8 376.9Z" fill="#15418d" stroke="#15418d"></path><path d="M262.1 0L146.3 101.3L271.8 90.1Z" fill="#204d93" stroke="#204d93"></path><path d="M179.5 137.1L146.3 101.3L179.3 182.4Z" fill="#133f8c" stroke="#133f8c"></path><path d="M107.3 293.7L100.5 431.9L154.5 354.6Z" fill="#194690" stroke="#194690"></path><path d="M960 80.1L960 0L840.7 27.1Z" fill="#194690" stroke="#194690"></path><path d="M971.7 492.9L960 0L960 80.1Z" fill="#133f8c" stroke="#133f8c"></path><path d="M146.3 101.3L0 189.4L179.3 182.4Z" fill="#1d4a92" stroke="#1d4a92"></path><path d="M0 448.9L63.3 540L100.5 431.9Z" fill="#15418d" stroke="#15418d"></path><path d="M99.3 0L97.3 43.1L146.3 101.3Z" fill="#204d93" stroke="#204d93"></path><path d="M0 335.6L100.5 431.9L107.3 293.7Z" fill="#15418d" stroke="#15418d"></path><path d="M100.5 431.9L63.3 540L171.8 540Z" fill="#16438e" stroke="#16438e"></path><path d="M262.1 0L99.3 0L146.3 101.3Z" fill="#1f4c93" stroke="#1f4c93"></path><path d="M0 189.4L0 335.6L107.3 293.7Z" fill="#224f94" stroke="#224f94"></path><path d="M99.3 0L98.5 0L97.3 43.1Z" fill="#204d93" stroke="#204d93"></path><path d="M0 189.4L146.3 101.3L0 151.3Z" fill="#1b4891" stroke="#1b4891"></path><path d="M0 540L51.3 551.9L63.3 540Z" fill="#1d4a92" stroke="#1d4a92"></path><path d="M63.3 540L51.3 551.9L171.8 540Z" fill="#15418d" stroke="#15418d"></path><path d="M171.8 540L51.3 551.9L188.5 540Z" fill="#133f8c" stroke="#133f8c"></path><path d="M188.5 540L51.3 551.9L320.1 540Z" fill="#15418d" stroke="#15418d"></path><path d="M320.1 540L51.3 551.9L461.6 540Z" fill="#194690" stroke="#194690"></path><path d="M461.6 540L51.3 551.9L526.4 540Z" fill="#1d4a92" stroke="#1d4a92"></path><path d="M526.4 540L51.3 551.9L676.9 540Z" fill="#1f4c93" stroke="#1f4c93"></path><path d="M676.9 540L51.3 551.9L782.2 540Z" fill="#224f94" stroke="#224f94"></path><path d="M782.2 540L51.3 551.9L800.5 540Z" fill="#18448f" stroke="#18448f"></path><path d="M800.5 540L51.3 551.9L896.7 540Z" fill="#1b4891" stroke="#1b4891"></path><path d="M896.7 540L51.3 551.9L960 540Z" fill="#16438e" stroke="#16438e"></path><path d="M0 335.6L0 422.7L100.5 431.9Z" fill="#1f4c93" stroke="#1f4c93"></path><path d="M0 151.3L146.3 101.3L0 93.1Z" fill="#1b4891" stroke="#1b4891"></path><path d="M0 422.7L0 448.9L100.5 431.9Z" fill="#18448f" stroke="#18448f"></path><path d="M0 93.1L146.3 101.3L97.3 43.1Z" fill="#15418d" stroke="#15418d"></path><path d="M0 0L0 93.1L97.3 43.1Z" fill="#1f4c93" stroke="#1f4c93"></path><path d="M0 448.9L0 540L63.3 540Z" fill="#224f94" stroke="#224f94"></path><path d="M98.5 0L0 0L97.3 43.1Z" fill="#224f94" stroke="#224f94"></path></g></svg>